<?xml version="1.0" encoding="UTF-8"?> <svg xmlns="http://www.w3.org/2000/svg" id="Layer_2" data-name="Layer 2" viewBox="0 0 400 166.63"><defs><style> .cls-1 { isolation: isolate; } .cls-2 { fill: #001d6c; } </style></defs><g id="Layer_1-2" data-name="Layer 1"><g><g class="cls-1"><g class="cls-1"><path class="cls-2" d="M13.2,153.31c.54.4,1.41,1,1.55,1,.03-.2-3-2.5-3.2-2.44,0,0,0,0,0,0h0s0,0,0,0h0s0,0,0,0h0s0,0,0,0h0c0,.14.96.93,1.65,1.44"></path></g><g class="cls-1"><g><path class="cls-2" d="M35.77,73.27c-.16,4.9-5.32,7.64-8.5,4.5-3.05-3.01-1.72-9.47,3.12-10.12,3.85-.24,5.46,3.14,5.38,5.62"></path></g></g></g></g></svg> 